<svg xmlns="http://www.w3.org/2000/svg" viewBox="0 0 40 40" xml:space="preserve" width="40" height="40"><path style="fill:#fc6f58" d="M40 20a20 20 0 0 1-20 20A20 20 0 0 1 0 20a20 20 0 0 1 40 0"/><path style="fill:#f1543f" d="M22.842 39.798c9.332-1.328 16.588-9.094 17.126-18.658L24.156 5.328l-1.524 6.85-5.772-5.772.992 9.682-2.834 15.884z"/><path style="fill:#edb9d7" d="M25.556 25.556A5.56 5.56 0 0 1 20 31.112a5.56 5.56 0 0 1-5.556-5.556 5.556 5.556 0 0 1 11.112 0"/><path style="fill:#d89ec2" d="M25.556 25.556a5.554 5.554 0 0 0-5.5-5.554V31.11a5.554 5.554 0 0 0 5.5-5.554"/><path style="fill:#fff" d="m24.446 26.666-2.222-2.694-2.222 2.694-2.222-2.694-2.222 2.694-1.802-2.184a13 13 0 0 0-.404 3.092 6.648 6.648 0 1 0 13.296 0c0-1.032-.13-2.094-.366-3.134z"/><path style="fill:#e6f3ff" d="M26.648 27.576c0-1.032-.13-2.094-.366-3.134l-1.836 2.226-2.222-2.694-2.168 2.628v7.622a6.646 6.646 0 0 0 6.592-6.646M15.16 9.376c.324 1.43 1.906 5.934 3.008 6.73.652-1.192.136-5.94-.188-7.37s-1.152-2.614-2.256-3.408a5.76 5.76 0 0 0-.564 4.048"/><path style="fill:#ff80aa" d="M15.56 9.714c.242 1.07 1.428 4.446 2.254 5.042.488-.894.102-4.45-.142-5.52a4.32 4.32 0 0 0-1.69-2.554 4.3 4.3 0 0 0-.422 3.032"/><path style="fill:#cfdbe6" d="M24.72 9.376c-.324 1.43-1.906 5.934-3.008 6.73-.652-1.192-.136-5.94.188-7.37a5.74 5.74 0 0 1 2.256-3.408 5.76 5.76 0 0 1 .564 4.048"/><path style="fill:#ff6472" d="M24.322 9.714c-.242 1.07-1.428 4.446-2.254 5.042-.488-.894-.102-4.45.142-5.52s.864-1.958 1.69-2.554a4.32 4.32 0 0 1 .424 3.032"/><path style="fill:#fff" d="M24.982 17.608a4.94 4.94 0 0 1-4.942 4.942 4.94 4.94 0 0 1-4.942-4.942 4.942 4.942 0 0 1 9.884 0"/><path style="fill:#e6f3ff" d="M24.984 17.608a4.94 4.94 0 0 0-4.928-4.942v9.884a4.94 4.94 0 0 0 4.928-4.942"/><path style="fill:#324a5e" d="M17.938 18.308a.3.3 0 0 1-.296.296.3.3 0 0 1-.296-.296.296.296 0 0 1 .592 0"/><path style="fill:#2b3b4e" d="M22.736 18.308a.3.3 0 0 1-.296.296.3.3 0 0 1-.296-.296.296.296 0 0 1 .592 0"/><path style="fill:#ff80aa" d="M20.888 20.578a.32.32 0 0 1-.322.322.32.32 0 0 1-.322-.322v-1.972h-.404v1.972a.32.32 0 0 1-.322.322.32.32 0 0 1-.322-.322h-.404a.728.728 0 0 0 1.25.5.724.724 0 0 0 1.25-.5z"/><path style="fill:#ff6472" d="M20.888 20.578a.32.32 0 0 1-.322.322.32.32 0 0 1-.322-.322v-1.972h-.186v2.486a.72.72 0 0 0 1.234-.514z"/><path style="fill:#fd5790" d="M20.54 18.31c0 .276-.224.65-.5.65s-.5-.374-.5-.65.224-.258.5-.258.5-.018.5.258"/><path style="fill:#c75163" d="M20.54 18.31c0-.27-.216-.258-.484-.258v.906c.268-.014.484-.378.484-.65"/></svg>